{"glyphs":{"0":{"ha":1389,"x_min":0,"x_max":1042,"o":"m 694 174 l 694 868 l 347 868 l 347 174 l 694 174 m 174 0 l 174 174 l 0 174 l 0 868 l 174 868 l 174 1042 l 868 1042 l 868 868 l 1042 868 l 1042 174 l 868 174 l 868 0 l 174 0 z "},"1":{"ha":1389,"x_min":174,"x_max":868,"o":"m 174 0 l 174 174 l 347 174 l 347 694 l 174 694 l 174 868 l 347 868 l 347 1042 l 694 1042 l 694 174 l 868 174 l 868 0 l 174 0 z "},"2":{"ha":1389,"x_min":0,"x_max":1042,"o":"m 0 694 l 0 868 l 174 868 l 174 694 l 0 694 m 0 0 l 0 347 l 174 347 l 174 521 l 521 521 l 521 868 l 174 868 l 174 1042 l 868 1042 l 868 868 l 1042 868 l 1042 521 l 868 521 l 868 347 l 521 347 l 521 174 l 1042 174 l 1042 0 l 0 0 z "},"3":{"ha":1389,"x_min":0,"x_max":1042,"o":"m 0 0 l 0 174 l 521 174 l 521 521 l 174 521 l 174 694 l 521 694 l 521 868 l 0 868 l 0 1042 l 868 1042 l 868 868 l 1042 868 l 1042 694 l 868 694 l 868 521 l 1042 521 l 1042 174 l 868 174 l 868 0 l 0 0 z "},"4":{"ha":1389,"x_min":0,"x_max":1042,"o":"m 521 347 l 521 868 l 347 868 l 347 694 l 174 694 l 174 347 l 521 347 m 521 0 l 521 174 l 0 174 l 0 868 l 174 868 l 174 1042 l 868 1042 l 868 347 l 1042 347 l 1042 174 l 868 174 l 868 0 l 521 0 z "},"5":{"ha":1389,"x_min":0,"x_max":1042,"o":"m 0 174 l 0 347 l 174 347 l 174 174 l 0 174 m 174 0 l 174 174 l 521 174 l 521 521 l 0 521 l 0 1042 l 868 1042 l 868 868 l 347 868 l 347 694 l 868 694 l 868 521 l 1042 521 l 1042 174 l 868 174 l 868 0 l 174 0 z "},"6":{"ha":1389,"x_min":0,"x_max":1042,"o":"m 694 174 l 694 521 l 347 521 l 347 174 l 694 174 m 174 0 l 174 174 l 0 174 l 0 868 l 174 868 l 174 1042 l 868 1042 l 868 868 l 347 868 l 347 694 l 868 694 l 868 521 l 1042 521 l 1042 174 l 868 174 l 868 0 l 174 0 z "},"7":{"ha":1389,"x_min":0,"x_max":1042,"o":"m 174 0 l 174 347 l 347 347 l 347 521 l 521 521 l 521 694 l 694 694 l 694 868 l 0 868 l 0 1042 l 1042 1042 l 1042 694 l 868 694 l 868 521 l 694 521 l 694 0 l 174 0 z "},"8":{"ha":1389,"x_min":0,"x_max":1042,"o":"m 0 174 l 0 521 l 174 521 l 174 174 l 0 174 m 0 694 l 0 868 l 174 868 l 174 694 l 0 694 m 174 0 l 174 174 l 521 174 l 521 521 l 174 521 l 174 694 l 521 694 l 521 868 l 174 868 l 174 1042 l 868 1042 l 868 868 l 1042 868 l 1042 694 l 868 694 l 868 521 l 1042 521 l 1042 174 l 868 174 l 868 0 l 174 0 z "},"9":{"ha":1389,"x_min":0,"x_max":1042,"o":"m 0 521 l 0 868 l 174 868 l 174 521 l 0 521 m 174 0 l 174 174 l 521 174 l 521 347 l 174 347 l 174 521 l 521 521 l 521 868 l 174 868 l 174 1042 l 868 1042 l 868 868 l 1042 868 l 1042 174 l 868 174 l 868 0 l 174 0 z "}," ":{"ha":694,"x_min":0,"x_max":0,"o":""},"!":{"ha":1389,"x_min":347,"x_max":868,"o":"m 347 0 l 347 174 l 868 174 l 868 0 l 347 0 m 347 347 l 347 1042 l 868 1042 l 868 347 l 347 347 z "},"\"":{"ha":1389,"x_min":0,"x_max":868,"o":"m 174 694 l 174 868 l 0 868 l 0 1215 l 347 1215 l 347 694 l 174 694 m 694 694 l 694 868 l 521 868 l 521 1215 l 868 1215 l 868 694 l 694 694 z "},"'":{"ha":1389,"x_min":347,"x_max":694,"o":"m 521 694 l 521 868 l 347 868 l 347 1215 l 694 1215 l 694 694 l 521 694 z "},"(":{"ha":1389,"x_min":-174,"x_max":1042,"o":"m 174 -174 l 174 0 l 694 0 l 694 -174 l 174 -174 m 0 0 l 0 174 l 174 174 l 174 0 l 0 0 m 694 0 l 694 174 l 868 174 l 868 0 l 694 0 m 347 174 l 347 347 l 521 347 l 521 174 l 347 174 m 521 347 l 521 694 l 694 694 l 694 347 l 521 347 m -174 174 l -174 868 l 0 868 l 0 174 l -174 174 m 868 174 l 868 868 l 1042 868 l 1042 174 l 868 174 m 0 868 l 0 1042 l 174 1042 l 174 868 l 0 868 m 694 868 l 694 1042 l 868 1042 l 868 868 l 694 868 m 174 1042 l 174 1215 l 694 1215 l 694 1042 l 174 1042 z "},")":{"ha":1389,"x_min":0,"x_max":868,"o":"m 521 174 l 521 347 l 694 347 l 694 694 l 521 694 l 521 868 l 347 868 l 347 694 l 174 694 l 174 347 l 347 347 l 347 174 l 521 174 m 174 0 l 174 174 l 0 174 l 0 868 l 174 868 l 174 1042 l 694 1042 l 694 868 l 868 868 l 868 174 l 694 174 l 694 0 l 174 0 z "},"*":{"ha":1389,"x_min":0,"x_max":868,"o":"m 0 0 l 0 174 l 174 174 l 174 0 l 0 0 m 694 0 l 694 174 l 868 174 l 868 0 l 694 0 m 174 174 l 174 347 l 347 347 l 347 174 l 174 174 m 521 174 l 521 347 l 694 347 l 694 174 l 521 174 m 347 347 l 347 521 l 521 521 l 521 347 l 347 347 m 174 521 l 174 694 l 347 694 l 347 521 l 174 521 m 521 521 l 521 694 l 694 694 l 694 521 l 521 521 m 0 694 l 0 868 l 174 868 l 174 694 l 0 694 m 694 694 l 694 868 l 868 868 l 868 694 l 694 694 z "},",":{"ha":1389,"x_min":174,"x_max":521,"o":"m 174 -174 l 174 0 l 347 0 l 347 -174 l 174 -174 m 347 0 l 347 174 l 174 174 l 174 521 l 521 521 l 521 0 l 347 0 z "},"-":{"ha":1389,"x_min":174,"x_max":868,"o":"m 174 347 l 174 694 l 868 694 l 868 347 l 174 347 z "},".":{"ha":1389,"x_min":0,"x_max":347,"o":"m 0 0 l 0 347 l 347 347 l 347 0 l 0 0 z "},":":{"ha":1389,"x_min":174,"x_max":521,"o":"m 174 0 l 174 347 l 521 347 l 521 0 l 174 0 m 174 521 l 174 868 l 521 868 l 521 521 l 174 521 z "},";":{"ha":1389,"x_min":174,"x_max":521,"o":"m 174 -174 l 174 0 l 347 0 l 347 -174 l 174 -174 m 347 0 l 347 174 l 174 174 l 174 521 l 521 521 l 521 0 l 347 0 m 174 694 l 174 1042 l 521 1042 l 521 694 l 174 694 z "},"<":{"ha":1563,"x_min":0,"x_max":1215,"o":"m 521 -347 l 521 -174 l 694 -174 l 694 -347 l 521 -347 m 347 -174 l 347 0 l 521 0 l 521 -174 l 347 -174 m 694 -174 l 694 0 l 868 0 l 868 -174 l 694 -174 m 174 0 l 174 174 l 347 174 l 347 0 l 174 0 m 868 0 l 868 174 l 1042 174 l 1042 0 l 868 0 m 0 174 l 0 694 l 174 694 l 174 174 l 0 174 m 521 521 l 521 694 l 694 694 l 694 521 l 521 521 m 1042 174 l 1042 694 l 1215 694 l 1215 174 l 1042 174 m 174 694 l 174 868 l 521 868 l 521 694 l 174 694 m 694 694 l 694 868 l 1042 868 l 1042 694 l 694 694 z "},">":{"ha":1563,"x_min":174,"x_max":1042,"o":"m 521 -174 l 521 0 l 347 0 l 347 174 l 174 174 l 174 347 l 347 347 l 347 694 l 521 694 l 521 521 l 694 521 l 694 694 l 1042 694 l 1042 174 l 868 174 l 868 0 l 694 0 l 694 -174 l 521 -174 z "},"?":{"ha":1389,"x_min":-174,"x_max":868,"o":"m 174 -174 l 174 0 l 521 0 l 521 -174 l 174 -174 m -174 694 l -174 868 l 0 868 l 0 694 l -174 694 m 174 174 l 174 521 l 347 521 l 347 868 l 0 868 l 0 1042 l 694 1042 l 694 868 l 868 868 l 868 521 l 694 521 l 694 347 l 521 347 l 521 174 l 174 174 z "},"A":{"ha":1389,"x_min":0,"x_max":1042,"o":"m 0 0 l 0 868 l 174 868 l 174 521 l 521 521 l 521 868 l 174 868 l 174 1042 l 868 1042 l 868 868 l 1042 868 l 1042 0 l 521 0 l 521 347 l 174 347 l 174 0 l 0 0 z "},"B":{"ha":1389,"x_min":0,"x_max":1042,"o":"m 694 174 l 694 521 l 347 521 l 347 174 l 694 174 m 694 694 l 694 868 l 347 868 l 347 694 l 694 694 m 0 0 l 0 1042 l 868 1042 l 868 868 l 1042 868 l 1042 694 l 868 694 l 868 521 l 1042 521 l 1042 174 l 868 174 l 868 0 l 0 0 z "},"C":{"ha":1389,"x_min":0,"x_max":1042,"o":"m 174 0 l 174 174 l 0 174 l 0 868 l 174 868 l 174 1042 l 868 1042 l 868 868 l 1042 868 l 1042 694 l 694 694 l 694 868 l 347 868 l 347 174 l 694 174 l 694 347 l 1042 347 l 1042 174 l 868 174 l 868 0 l 174 0 z "},"D":{"ha":1389,"x_min":0,"x_max":1042,"o":"m 521 174 l 521 868 l 174 868 l 174 174 l 521 174 m 0 0 l 0 1042 l 868 1042 l 868 868 l 1042 868 l 1042 174 l 868 174 l 868 0 l 0 0 z "},"E":{"ha":1389,"x_min":0,"x_max":1042,"o":"m 0 0 l 0 1042 l 1042 1042 l 1042 868 l 347 868 l 347 694 l 868 694 l 868 521 l 347 521 l 347 174 l 1042 174 l 1042 0 l 0 0 z "},"F":{"ha":1389,"x_min":0,"x_max":1042,"o":"m 0 0 l 0 1042 l 1042 1042 l 1042 868 l 347 868 l 347 521 l 868 521 l 868 347 l 347 347 l 347 0 l 0 0 z "},"G":{"ha":1389,"x_min":0,"x_max":1042,"o":"m 174 0 l 174 174 l 0 174 l 0 868 l 174 868 l 174 1042 l 868 1042 l 868 868 l 1042 868 l 1042 694 l 694 694 l 694 868 l 347 868 l 347 174 l 694 174 l 694 347 l 521 347 l 521 521 l 1042 521 l 1042 0 l 174 0 z "},"H":{"ha":1389,"x_min":0,"x_max":1042,"o":"m 0 0 l 0 1042 l 174 1042 l 174 694 l 694 694 l 694 1042 l 1042 1042 l 1042 0 l 694 0 l 694 521 l 174 521 l 174 0 l 0 0 z "},"I":{"ha":1389,"x_min":174,"x_max":868,"o":"m 174 0 l 174 174 l 347 174 l 347 868 l 174 868 l 174 1042 l 868 1042 l 868 868 l 694 868 l 694 174 l 868 174 l 868 0 l 174 0 z "},"J":{"ha":1389,"x_min":0,"x_max":1042,"o":"m 174 0 l 174 174 l 0 174 l 0 521 l 347 521 l 347 174 l 521 174 l 521 868 l 347 868 l 347 1042 l 1042 1042 l 1042 868 l 868 868 l 868 174 l 694 174 l 694 0 l 174 0 z "},"K":{"ha":1389,"x_min":0,"x_max":1042,"o":"m 0 0 l 0 1042 l 347 1042 l 347 694 l 521 694 l 521 868 l 694 868 l 694 1042 l 1042 1042 l 1042 868 l 868 868 l 868 694 l 694 694 l 694 347 l 868 347 l 868 174 l 1042 174 l 1042 0 l 694 0 l 694 174 l 521 174 l 521 347 l 347 347 l 347 0 l 0 0 z "},"L":{"ha":1389,"x_min":0,"x_max":1042,"o":"m 0 0 l 0 1042 l 347 1042 l 347 174 l 1042 174 l 1042 0 l 0 0 z "},"M":{"ha":1389,"x_min":0,"x_max":1042,"o":"m 0 0 l 0 1042 l 174 1042 l 174 868 l 347 868 l 347 694 l 521 694 l 521 868 l 694 868 l 694 1042 l 1042 1042 l 1042 0 l 694 0 l 694 521 l 521 521 l 521 347 l 347 347 l 347 521 l 174 521 l 174 0 l 0 0 z "},"N":{"ha":1389,"x_min":0,"x_max":1042,"o":"m 0 0 l 0 1042 l 174 1042 l 174 868 l 347 868 l 347 694 l 521 694 l 521 521 l 694 521 l 694 1042 l 1042 1042 l 1042 0 l 694 0 l 694 174 l 521 174 l 521 347 l 347 347 l 347 521 l 174 521 l 174 0 l 0 0 z "},"O":{"ha":1389,"x_min":0,"x_max":1042,"o":"m 694 174 l 694 868 l 347 868 l 347 174 l 694 174 m 174 0 l 174 174 l 0 174 l 0 868 l 174 868 l 174 1042 l 868 1042 l 868 868 l 1042 868 l 1042 174 l 868 174 l 868 0 l 174 0 z "},"P":{"ha":1389,"x_min":0,"x_max":1042,"o":"m 694 521 l 694 868 l 347 868 l 347 521 l 694 521 m 0 0 l 0 1042 l 868 1042 l 868 868 l 1042 868 l 1042 521 l 868 521 l 868 347 l 347 347 l 347 0 l 0 0 z "},"Q":{"ha":1389,"x_min":0,"x_max":1042,"o":"m 868 0 l 868 174 l 1042 174 l 1042 0 l 868 0 m 694 174 l 694 347 l 868 347 l 868 174 l 694 174 m 521 347 l 521 521 l 694 521 l 694 347 l 521 347 m 868 347 l 868 868 l 1042 868 l 1042 347 l 868 347 m 174 0 l 174 174 l 0 174 l 0 868 l 174 868 l 174 1042 l 868 1042 l 868 868 l 347 868 l 347 174 l 694 174 l 694 0 l 174 0 z "},"R":{"ha":1389,"x_min":0,"x_max":1042,"o":"m 694 0 l 694 174 l 1042 174 l 1042 0 l 694 0 m 694 521 l 694 868 l 347 868 l 347 521 l 694 521 m 0 0 l 0 1042 l 868 1042 l 868 868 l 1042 868 l 1042 521 l 868 521 l 868 347 l 694 347 l 694 174 l 521 174 l 521 347 l 347 347 l 347 0 l 0 0 z "},"S":{"ha":1389,"x_min":0,"x_max":1042,"o":"m 0 174 l 0 347 l 174 347 l 174 174 l 0 174 m 174 0 l 174 174 l 521 174 l 521 521 l 174 521 l 174 694 l 0 694 l 0 868 l 174 868 l 174 1042 l 868 1042 l 868 868 l 347 868 l 347 694 l 868 694 l 868 521 l 1042 521 l 1042 174 l 868 174 l 868 0 l 174 0 z "},"T":{"ha":1389,"x_min":0,"x_max":1042,"o":"m 347 0 l 347 868 l 0 868 l 0 1042 l 1042 1042 l 1042 868 l 694 868 l 694 0 l 347 0 z "},"U":{"ha":1389,"x_min":0,"x_max":1042,"o":"m 0 174 l 0 1042 l 174 1042 l 174 174 l 0 174 m 174 0 l 174 174 l 521 174 l 521 347 l 694 347 l 694 1042 l 1042 1042 l 1042 174 l 868 174 l 868 0 l 174 0 z "},"V":{"ha":1389,"x_min":0,"x_max":1042,"o":"m 174 174 l 174 347 l 347 347 l 347 174 l 174 174 m 0 347 l 0 1042 l 174 1042 l 174 347 l 0 347 m 347 0 l 347 174 l 521 174 l 521 347 l 694 347 l 694 1042 l 1042 1042 l 1042 347 l 868 347 l 868 174 l 694 174 l 694 0 l 347 0 z "},"W":{"ha":1389,"x_min":0,"x_max":1042,"o":"m 0 0 l 0 1042 l 174 1042 l 174 521 l 347 521 l 347 694 l 521 694 l 521 521 l 694 521 l 694 1042 l 1042 1042 l 1042 0 l 694 0 l 694 174 l 521 174 l 521 347 l 347 347 l 347 174 l 174 174 l 174 0 l 0 0 z "},"X":{"ha":1389,"x_min":0,"x_max":1042,"o":"m 868 0 l 868 174 l 1042 174 l 1042 0 l 868 0 m 694 174 l 694 347 l 868 347 l 868 174 l 694 174 m 174 694 l 174 868 l 347 868 l 347 694 l 174 694 m 0 868 l 0 1042 l 174 1042 l 174 868 l 0 868 m 0 0 l 0 347 l 174 347 l 174 521 l 347 521 l 347 694 l 521 694 l 521 868 l 694 868 l 694 1042 l 1042 1042 l 1042 868 l 868 868 l 868 694 l 694 694 l 694 347 l 347 347 l 347 174 l 174 174 l 174 0 l 0 0 z "},"Y":{"ha":1389,"x_min":0,"x_max":1042,"o":"m 347 0 l 347 521 l 174 521 l 174 694 l 0 694 l 0 1042 l 347 1042 l 347 694 l 694 694 l 694 1042 l 1042 1042 l 1042 694 l 868 694 l 868 521 l 694 521 l 694 0 l 347 0 z "},"Z":{"ha":1389,"x_min":0,"x_max":1042,"o":"m 0 0 l 0 347 l 174 347 l 174 521 l 347 521 l 347 694 l 521 694 l 521 868 l 0 868 l 0 1042 l 1042 1042 l 1042 694 l 868 694 l 868 521 l 694 521 l 694 347 l 521 347 l 521 174 l 1042 174 l 1042 0 l 0 0 z "},"[":{"ha":1389,"x_min":-174,"x_max":1215,"o":"m 174 -174 l 174 0 l 868 0 l 868 -174 l 174 -174 m 0 0 l 0 347 l -174 347 l -174 868 l 0 868 l 0 521 l 1042 521 l 1042 868 l 1215 868 l 1215 347 l 1042 347 l 1042 0 l 868 0 l 868 347 l 174 347 l 174 0 l 0 0 m 0 868 l 0 1042 l 174 1042 l 174 868 l 0 868 m 868 868 l 868 1042 l 1042 1042 l 1042 868 l 868 868 m 174 1042 l 174 1215 l 868 1215 l 868 1042 l 174 1042 z "},"]":{"ha":1389,"x_min":0,"x_max":1042,"o":"m 0 521 l 0 868 l 174 868 l 174 1042 l 868 1042 l 868 868 l 1042 868 l 1042 521 l 0 521 z "},"a":{"ha":1389,"x_min":0,"x_max":1042,"o":"m 0 0 l 0 868 l 174 868 l 174 521 l 521 521 l 521 868 l 174 868 l 174 1042 l 868 1042 l 868 868 l 1042 868 l 1042 0 l 521 0 l 521 347 l 174 347 l 174 0 l 0 0 z "},"b":{"ha":1389,"x_min":0,"x_max":1042,"o":"m 694 174 l 694 521 l 347 521 l 347 174 l 694 174 m 694 694 l 694 868 l 347 868 l 347 694 l 694 694 m 0 0 l 0 1042 l 868 1042 l 868 868 l 1042 868 l 1042 694 l 868 694 l 868 521 l 1042 521 l 1042 174 l 868 174 l 868 0 l 0 0 z "},"c":{"ha":1389,"x_min":0,"x_max":1042,"o":"m 174 0 l 174 174 l 0 174 l 0 868 l 174 868 l 174 1042 l 868 1042 l 868 868 l 1042 868 l 1042 694 l 694 694 l 694 868 l 347 868 l 347 174 l 694 174 l 694 347 l 1042 347 l 1042 174 l 868 174 l 868 0 l 174 0 z "},"d":{"ha":1389,"x_min":0,"x_max":1042,"o":"m 521 174 l 521 868 l 174 868 l 174 174 l 521 174 m 0 0 l 0 1042 l 868 1042 l 868 868 l 1042 868 l 1042 174 l 868 174 l 868 0 l 0 0 z "},"e":{"ha":1389,"x_min":0,"x_max":1042,"o":"m 0 0 l 0 1042 l 1042 1042 l 1042 868 l 347 868 l 347 694 l 868 694 l 868 521 l 347 521 l 347 174 l 1042 174 l 1042 0 l 0 0 z "},"f":{"ha":1389,"x_min":0,"x_max":1042,"o":"m 0 0 l 0 1042 l 1042 1042 l 1042 868 l 347 868 l 347 521 l 868 521 l 868 347 l 347 347 l 347 0 l 0 0 z "},"g":{"ha":1389,"x_min":0,"x_max":1042,"o":"m 174 0 l 174 174 l 0 174 l 0 868 l 174 868 l 174 1042 l 868 1042 l 868 868 l 1042 868 l 1042 694 l 694 694 l 694 868 l 347 868 l 347 174 l 694 174 l 694 347 l 521 347 l 521 521 l 1042 521 l 1042 0 l 174 0 z "},"h":{"ha":1389,"x_min":0,"x_max":1042,"o":"m 0 0 l 0 1042 l 174 1042 l 174 694 l 694 694 l 694 1042 l 1042 1042 l 1042 0 l 694 0 l 694 521 l 174 521 l 174 0 l 0 0 z "},"i":{"ha":1389,"x_min":174,"x_max":868,"o":"m 174 0 l 174 174 l 347 174 l 347 868 l 174 868 l 174 1042 l 868 1042 l 868 868 l 694 868 l 694 174 l 868 174 l 868 0 l 174 0 z "},"j":{"ha":1389,"x_min":0,"x_max":1042,"o":"m 174 0 l 174 174 l 0 174 l 0 521 l 347 521 l 347 174 l 521 174 l 521 868 l 347 868 l 347 1042 l 1042 1042 l 1042 868 l 868 868 l 868 174 l 694 174 l 694 0 l 174 0 z "},"k":{"ha":1389,"x_min":0,"x_max":1042,"o":"m 0 0 l 0 1042 l 347 1042 l 347 694 l 521 694 l 521 868 l 694 868 l 694 1042 l 1042 1042 l 1042 868 l 868 868 l 868 694 l 694 694 l 694 347 l 868 347 l 868 174 l 1042 174 l 1042 0 l 694 0 l 694 174 l 521 174 l 521 347 l 347 347 l 347 0 l 0 0 z "},"l":{"ha":1389,"x_min":0,"x_max":1042,"o":"m 0 0 l 0 1042 l 347 1042 l 347 174 l 1042 174 l 1042 0 l 0 0 z "},"m":{"ha":1389,"x_min":0,"x_max":1042,"o":"m 0 0 l 0 1042 l 174 1042 l 174 868 l 347 868 l 347 694 l 521 694 l 521 868 l 694 868 l 694 1042 l 1042 1042 l 1042 0 l 694 0 l 694 521 l 521 521 l 521 347 l 347 347 l 347 521 l 174 521 l 174 0 l 0 0 z "},"n":{"ha":1389,"x_min":0,"x_max":1042,"o":"m 0 0 l 0 1042 l 174 1042 l 174 868 l 347 868 l 347 694 l 521 694 l 521 521 l 694 521 l 694 1042 l 1042 1042 l 1042 0 l 694 0 l 694 174 l 521 174 l 521 347 l 347 347 l 347 521 l 174 521 l 174 0 l 0 0 z "},"o":{"ha":1389,"x_min":0,"x_max":1042,"o":"m 694 174 l 694 868 l 347 868 l 347 174 l 694 174 m 174 0 l 174 174 l 0 174 l 0 868 l 174 868 l 174 1042 l 868 1042 l 868 868 l 1042 868 l 1042 174 l 868 174 l 868 0 l 174 0 z "},"p":{"ha":1389,"x_min":0,"x_max":1042,"o":"m 694 521 l 694 868 l 347 868 l 347 521 l 694 521 m 0 0 l 0 1042 l 868 1042 l 868 868 l 1042 868 l 1042 521 l 868 521 l 868 347 l 347 347 l 347 0 l 0 0 z "},"q":{"ha":1389,"x_min":0,"x_max":1042,"o":"m 868 0 l 868 174 l 1042 174 l 1042 0 l 868 0 m 694 174 l 694 347 l 868 347 l 868 174 l 694 174 m 521 347 l 521 521 l 694 521 l 694 347 l 521 347 m 868 347 l 868 868 l 1042 868 l 1042 347 l 868 347 m 174 0 l 174 174 l 0 174 l 0 868 l 174 868 l 174 1042 l 868 1042 l 868 868 l 347 868 l 347 174 l 694 174 l 694 0 l 174 0 z "},"r":{"ha":1389,"x_min":0,"x_max":1042,"o":"m 694 0 l 694 174 l 1042 174 l 1042 0 l 694 0 m 694 521 l 694 868 l 347 868 l 347 521 l 694 521 m 0 0 l 0 1042 l 868 1042 l 868 868 l 1042 868 l 1042 521 l 868 521 l 868 347 l 694 347 l 694 174 l 521 174 l 521 347 l 347 347 l 347 0 l 0 0 z "},"s":{"ha":1389,"x_min":0,"x_max":1042,"o":"m 0 174 l 0 347 l 174 347 l 174 174 l 0 174 m 174 0 l 174 174 l 521 174 l 521 521 l 174 521 l 174 694 l 0 694 l 0 868 l 174 868 l 174 1042 l 868 1042 l 868 868 l 347 868 l 347 694 l 868 694 l 868 521 l 1042 521 l 1042 174 l 868 174 l 868 0 l 174 0 z "},"t":{"ha":1389,"x_min":0,"x_max":1042,"o":"m 347 0 l 347 868 l 0 868 l 0 1042 l 1042 1042 l 1042 868 l 694 868 l 694 0 l 347 0 z "},"u":{"ha":1389,"x_min":0,"x_max":1042,"o":"m 0 174 l 0 1042 l 174 1042 l 174 174 l 0 174 m 174 0 l 174 174 l 521 174 l 521 347 l 694 347 l 694 1042 l 1042 1042 l 1042 174 l 868 174 l 868 0 l 174 0 z "},"v":{"ha":1389,"x_min":0,"x_max":1042,"o":"m 174 174 l 174 347 l 347 347 l 347 174 l 174 174 m 0 347 l 0 1042 l 174 1042 l 174 347 l 0 347 m 347 0 l 347 174 l 521 174 l 521 347 l 694 347 l 694 1042 l 1042 1042 l 1042 347 l 868 347 l 868 174 l 694 174 l 694 0 l 347 0 z "},"w":{"ha":1389,"x_min":0,"x_max":1042,"o":"m 0 0 l 0 1042 l 174 1042 l 174 521 l 347 521 l 347 694 l 521 694 l 521 521 l 694 521 l 694 1042 l 1042 1042 l 1042 0 l 694 0 l 694 174 l 521 174 l 521 347 l 347 347 l 347 174 l 174 174 l 174 0 l 0 0 z "},"x":{"ha":1389,"x_min":0,"x_max":1042,"o":"m 868 0 l 868 174 l 1042 174 l 1042 0 l 868 0 m 694 174 l 694 347 l 868 347 l 868 174 l 694 174 m 174 694 l 174 868 l 347 868 l 347 694 l 174 694 m 0 868 l 0 1042 l 174 1042 l 174 868 l 0 868 m 0 0 l 0 347 l 174 347 l 174 521 l 347 521 l 347 694 l 521 694 l 521 868 l 694 868 l 694 1042 l 1042 1042 l 1042 868 l 868 868 l 868 694 l 694 694 l 694 347 l 347 347 l 347 174 l 174 174 l 174 0 l 0 0 z "},"y":{"ha":1389,"x_min":0,"x_max":1042,"o":"m 347 0 l 347 521 l 174 521 l 174 694 l 0 694 l 0 1042 l 347 1042 l 347 694 l 694 694 l 694 1042 l 1042 1042 l 1042 694 l 868 694 l 868 521 l 694 521 l 694 0 l 347 0 z "},"z":{"ha":1389,"x_min":0,"x_max":1042,"o":"m 0 0 l 0 347 l 174 347 l 174 521 l 347 521 l 347 694 l 521 694 l 521 868 l 0 868 l 0 1042 l 1042 1042 l 1042 694 l 868 694 l 868 521 l 694 521 l 694 347 l 521 347 l 521 174 l 1042 174 l 1042 0 l 0 0 z "},"|":{"ha":8681,"x_min":0,"x_max":8681,"o":"m 4688 521 l 4688 694 l 4340 694 l 4340 521 l 4688 521 m 7118 174 l 7118 694 l 6771 694 l 6771 174 l 7118 174 m 8333 174 l 8333 694 l 7986 694 l 7986 174 l 8333 174 m 521 521 l 521 868 l 694 868 l 694 521 l 521 521 m 1389 0 l 1389 868 l 1736 868 l 1736 0 l 1389 0 m 1910 0 l 1910 868 l 2257 868 l 2257 694 l 2431 694 l 2431 521 l 2257 521 l 2257 0 l 1910 0 m 2604 0 l 2604 694 l 2431 694 l 2431 868 l 2778 868 l 2778 694 l 2951 694 l 2951 0 l 2604 0 m 4167 0 l 4167 174 l 3993 174 l 3993 694 l 4167 694 l 4167 868 l 4861 868 l 4861 694 l 5035 694 l 5035 347 l 4340 347 l 4340 174 l 5035 174 l 5035 0 l 4167 0 m 5208 0 l 5208 868 l 5556 868 l 5556 694 l 5729 694 l 5729 521 l 5556 521 l 5556 0 l 5208 0 m 5903 0 l 5903 694 l 5729 694 l 5729 868 l 6076 868 l 6076 694 l 6250 694 l 6250 0 l 5903 0 m 7813 0 l 7813 174 l 7639 174 l 7639 694 l 7813 694 l 7813 868 l 8507 868 l 8507 694 l 8681 694 l 8681 174 l 8507 174 l 8507 0 l 7813 0 m 3299 0 l 3299 868 l 3125 868 l 3125 1042 l 3299 1042 l 3299 1215 l 3646 1215 l 3646 1042 l 3819 1042 l 3819 868 l 3646 868 l 3646 0 l 3299 0 m 0 0 l 0 1389 l 347 1389 l 347 1215 l 521 1215 l 521 868 l 347 868 l 347 0 l 0 0 m 868 0 l 868 174 l 694 174 l 694 521 l 868 521 l 868 1389 l 1215 1389 l 1215 0 l 868 0 m 1389 1042 l 1389 1389 l 1736 1389 l 1736 1042 l 1389 1042 m 6597 0 l 6597 174 l 6424 174 l 6424 694 l 6597 694 l 6597 868 l 7118 868 l 7118 1389 l 7465 1389 l 7465 0 l 6597 0 z "},"~":{"ha":1389,"x_min":0,"x_max":694,"o":"m 0 0 l 0 1042 l 347 1042 l 347 868 l 521 868 l 521 694 l 694 694 l 694 347 l 521 347 l 521 174 l 347 174 l 347 0 l 0 0 z "},"©":{"ha":1389,"x_min":0,"x_max":1215,"o":"m 347 0 l 347 174 l 868 174 l 868 0 l 347 0 m 174 174 l 174 347 l 347 347 l 347 174 l 174 174 m 868 174 l 868 347 l 1042 347 l 1042 174 l 868 174 m 0 347 l 0 868 l 174 868 l 174 347 l 0 347 m 347 347 l 347 868 l 868 868 l 868 694 l 521 694 l 521 521 l 868 521 l 868 347 l 347 347 m 1042 347 l 1042 868 l 1215 868 l 1215 347 l 1042 347 m 174 868 l 174 1042 l 347 1042 l 347 868 l 174 868 m 868 868 l 868 1042 l 1042 1042 l 1042 868 l 868 868 m 347 1042 l 347 1215 l 868 1215 l 868 1042 l 347 1042 z "},"‘":{"ha":1389,"x_min":347,"x_max":694,"o":"m 521 694 l 521 868 l 347 868 l 347 1215 l 694 1215 l 694 694 l 521 694 z "},"’":{"ha":1389,"x_min":347,"x_max":694,"o":"m 521 694 l 521 868 l 347 868 l 347 1215 l 694 1215 l 694 694 l 521 694 z "},"“":{"ha":1389,"x_min":0,"x_max":868,"o":"m 174 521 l 174 694 l 0 694 l 0 1042 l 347 1042 l 347 521 l 174 521 m 694 521 l 694 694 l 521 694 l 521 1042 l 868 1042 l 868 521 l 694 521 z "},"”":{"ha":1389,"x_min":0,"x_max":868,"o":"m 174 521 l 174 694 l 0 694 l 0 1042 l 347 1042 l 347 521 l 174 521 m 694 521 l 694 694 l 521 694 l 521 1042 l 868 1042 l 868 521 l 694 521 z "}}}
